<svg xmlns="http://www.w3.org/2000/svg" width="600" height="600" viewBox="0 0 1024 1536" preserveAspectRatio="xMidYMid meet">
  <defs>
    <linearGradient id="pxntGradient" x1="0%" y1="40%" x2="100%" y2="100%">
      <stop offset="0%" stop-color="#444ce7"/>
      <stop offset="100%" stop-color="#b664ff"/>
    </linearGradient>
  </defs>
  <g transform="translate(0,1536) scale(0.1,-0.1)" fill="url(#pxntGradient)" stroke="none">
    <path d="M2549 10513 c0 -472 -3 -2064 -5 -3538 -3 -1474 -2 -2690 1 -2703 5 -20 17 -8 88 90 85 116 109 146 502 653 127 163 257 331 290 374 128 165 903 1157 1097 1403 l132 166 610 5 c645 5 722 9 940 58 587 130 1112 532 1424 1091 114 204 199 493 232 783 20 177 9 507 -23 675 -91 473 -276 831 -591 1145 -363 361 -806 571 -1346 636 -66 8 -585 13 -1722 16 l-1628 4 -1 -858z m3201 -346 c305 -68 535 -224 674 -457 52 -87 84 -168 118 -291 19 -72 22 -109 23 -259 0 -188 -11 -266 -52 -385 -93 -264 -333 -493 -613 -584 -165 -53 -172 -54 -717 -58 l-513 -4 -78 -102 c-43 -56 -190 -248 -328 -427 -137 -179 -285 -371 -327 -427 -43 -57 -82 -103 -87 -103 -7 0 -10 566 -10 1560 l0 1561 918 -4 c810 -3 926 -5 992 -20z"/>
  </g>
</svg>